<?xml version="1.0" encoding="UTF-8" standalone="no"?>
<!DOCTYPE svg PUBLIC "-//W3C//DTD SVG 1.1//EN" "http://www.w3.org/Graphics/SVG/1.1/DTD/svg11.dtd">
<svg width="100%" height="100%" viewBox="0 0 40 40" version="1.1" xmlns="http://www.w3.org/2000/svg" xmlns:xlink="http://www.w3.org/1999/xlink" xml:space="preserve" xmlns:serif="http://www.serif.com/" style="fill-rule:evenodd;clip-rule:evenodd;stroke-linejoin:round;stroke-miterlimit:2;">
    <g transform="matrix(1.14223,0,0,1.14223,-3.10537,-2.88059)">
        <path d="M4.902,30.001L4.902,31.672C4.902,33.12 5.478,34.509 6.503,35.533C7.528,36.556 8.918,37.13 10.367,37.127C15.581,37.118 24.903,37.101 30.11,37.091C33.118,37.086 35.555,34.645 35.555,31.636C35.555,30.721 35.555,30.001 35.555,30.001C35.555,29.081 34.808,28.334 33.888,28.334C32.968,28.334 32.221,29.081 32.221,30.001C32.221,30.001 32.221,30.721 32.221,31.636C32.221,32.806 31.274,33.756 30.103,33.758C24.897,33.767 15.575,33.784 10.361,33.794C9.798,33.795 9.257,33.572 8.858,33.174C8.459,32.776 8.235,32.235 8.235,31.672C8.235,30.739 8.235,30.001 8.235,30.001C8.235,29.081 7.488,28.334 6.569,28.334C5.649,28.334 4.902,29.081 4.902,30.001ZM18.562,24.234L18.562,4.603C18.562,3.683 19.308,2.936 20.228,2.936C21.148,2.936 21.895,3.683 21.895,4.603L21.895,24.232L27.635,18.491C28.286,17.841 29.342,17.841 29.992,18.491C30.643,19.142 30.643,20.198 29.992,20.848L21.406,29.435C20.755,30.086 19.7,30.086 19.049,29.435L10.464,20.851C9.814,20.2 9.814,19.144 10.464,18.494C11.115,17.843 12.171,17.843 12.821,18.494L18.562,24.234Z" style="fill:white;"/>
    </g>
</svg>
